<svg width="9" height="7" viewBox="0 0 8 5" fill="none" xmlns="http://www.w3.org/2000/svg">
<path d="M4.01917 3.99918C4.0799 3.9954 4.13762 3.97141 4.18314 3.93103L6.90884 1.47764C6.98184 1.4123 7.01435 1.31291 6.99407 1.21705C6.97379 1.12119 6.90382 1.04349 6.81061 1.01331C6.7174 0.983134 6.61517 1.00509 6.54257 1.07088L4 3.36028L1.45743 1.07088C1.38483 1.00509 1.2826 0.983132 1.18939 1.01331C1.09618 1.04349 1.02621 1.12119 1.00593 1.21705C0.985655 1.31291 1.01816 1.4123 1.09116 1.47764L3.81687 3.93103C3.87223 3.98031 3.94527 4.00491 4.01917 3.99918Z" fill="#7B2ABF" stroke="#C7C7C7" stroke-width="1.2"/>
</svg>
