<svg width="29" height="28" viewBox="0 0 29 28" fill="none" xmlns="http://www.w3.org/2000/svg">
<g clip-path="url(#clip0_119807_5397)">
<path d="M27.5489 13.164H1.44886C1.35342 13.1648 1.25827 13.1746 1.16466 13.1934L1.04286 13.2346C0.991094 13.2449 0.940546 13.2607 0.892055 13.2817C0.845851 13.3017 0.80125 13.3254 0.758655 13.3524C0.718321 13.3684 0.679497 13.3881 0.642656 13.4113C0.484189 13.521 0.348264 13.661 0.242456 13.8234L0.178656 13.9352C0.152006 13.9805 0.12874 14.0277 0.109056 14.0765C0.109056 14.1236 0.109056 14.1766 0.0626555 14.2237C0.0483944 14.2641 0.0367692 14.3054 0.0278555 14.3473C-0.0144935 14.5412 -0.0144935 14.7422 0.0278555 14.9361C0.0367469 14.98 0.0483703 15.0232 0.0626555 15.0656C0.0626555 15.1127 0.0916555 15.1657 0.109056 15.2128C0.126456 15.2599 0.155456 15.307 0.178656 15.3541L0.242456 15.4659C0.292669 15.548 0.3531 15.6232 0.422255 15.6897L12.1325 27.5643C12.4055 27.8329 12.7716 27.9818 13.1518 27.979C13.532 27.9762 13.8959 27.8219 14.1652 27.5494C14.4344 27.2769 14.5874 26.9079 14.5912 26.522C14.5951 26.1361 14.4494 25.7641 14.1857 25.4861L4.94626 16.1077H27.5663C27.9508 16.1077 28.3196 15.9526 28.5916 15.6766C28.8635 15.4005 29.0163 15.0262 29.0163 14.6358C29.0163 14.2455 28.8635 13.8711 28.5916 13.5951C28.3196 13.3191 27.9508 13.164 27.5663 13.164H27.5489Z" fill="black"/>
<path d="M12.238 0.430324L3.32609 9.47641C2.75983 10.0512 2.75983 10.9831 3.32609 11.5579C3.89235 12.1327 4.81044 12.1327 5.3767 11.5579L14.2886 2.5118C14.8549 1.93702 14.8549 1.00511 14.2886 0.430325C13.7224 -0.144458 12.8043 -0.144459 12.238 0.430324Z" fill="#7B2ABF"/>
</g>
<defs>
<clipPath id="clip0_119807_5397">
<rect width="29" height="28" fill="white"/>
</clipPath>
</defs>
</svg>
