<?xml version="1.0" encoding="utf-8"?>
<!-- Generator: Adobe Illustrator 23.0.3, SVG Export Plug-In . SVG Version: 6.00 Build 0)  -->
<svg version="1.1" id="Icons" xmlns="http://www.w3.org/2000/svg" xmlns:xlink="http://www.w3.org/1999/xlink" x="0px" y="0px"
	 viewBox="0 0 32 32" style="enable-background:new 0 0 32 32;" xml:space="preserve">
<g>
	<path d="M3,16c-0.1,0-0.3,0-0.4-0.1c-0.2-0.1-0.4-0.3-0.5-0.6l-1.4-3.8C0.4,10.8,0.5,10,0.8,9.3C1.1,8.6,1.7,8,2.5,7.7l20.7-7.5
		l0,0c0.8-0.3,1.6-0.2,2.3,0.1C26.2,0.6,26.7,1.2,27,2l1.4,3.8c0.1,0.2,0.1,0.5,0,0.8C28.2,6.8,28,6.9,27.8,7L3.3,15.9
		C3.2,16,3.1,16,3,16z"/>
</g>
<g>
	<path d="M30,20v-4c0-0.6-0.4-1-1-1H3c-0.6,0-1,0.4-1,1v4H30z"/>
	<path d="M2,22v7c0,1.7,1.3,3,3,3h22c1.7,0,3-1.3,3-3v-7H2z"/>
</g>
</svg>
