<svg width="168" height="30" viewBox="0 0 168 30" fill="none" xmlns="http://www.w3.org/2000/svg">
<path d="M49.7944 8.016C50.2104 8.224 50.4504 8.552 50.5144 9C50.5944 9.448 50.4824 9.856 50.1784 10.224C49.9704 10.512 49.6984 10.672 49.3624 10.704C49.0424 10.736 48.7144 10.672 48.3784 10.512C47.9944 10.336 47.5864 10.2 47.1544 10.104C46.7384 10.008 46.2984 9.96 45.8344 9.96C44.9704 9.96 44.1944 10.096 43.5064 10.368C42.8344 10.64 42.2584 11.032 41.7784 11.544C41.2984 12.04 40.9304 12.632 40.6744 13.32C40.4344 14.008 40.3144 14.768 40.3144 15.6C40.3144 16.576 40.4504 17.424 40.7224 18.144C41.0104 18.864 41.4024 19.464 41.8984 19.944C42.3944 20.424 42.9784 20.784 43.6504 21.024C44.3224 21.248 45.0504 21.36 45.8344 21.36C46.2664 21.36 46.6984 21.32 47.1304 21.24C47.5624 21.16 47.9784 21.016 48.3784 20.808C48.7144 20.648 49.0424 20.592 49.3624 20.64C49.6984 20.688 49.9784 20.856 50.2024 21.144C50.5224 21.544 50.6344 21.96 50.5384 22.392C50.4584 22.808 50.2184 23.112 49.8184 23.304C49.4024 23.512 48.9704 23.688 48.5224 23.832C48.0904 23.96 47.6504 24.056 47.2024 24.12C46.7544 24.2 46.2984 24.24 45.8344 24.24C44.6824 24.24 43.5864 24.056 42.5464 23.688C41.5224 23.32 40.6024 22.776 39.7864 22.056C38.9864 21.336 38.3544 20.44 37.8904 19.368C37.4264 18.28 37.1944 17.024 37.1944 15.6C37.1944 14.368 37.4024 13.232 37.8184 12.192C38.2504 11.152 38.8504 10.256 39.6184 9.504C40.4024 8.736 41.3224 8.144 42.3784 7.728C43.4344 7.296 44.5864 7.08 45.8344 7.08C46.5384 7.08 47.2264 7.16 47.8984 7.32C48.5704 7.48 49.2024 7.712 49.7944 8.016ZM65.2973 17.592C65.2973 18.904 65.0013 20.064 64.4093 21.072C63.8333 22.064 63.0493 22.84 62.0573 23.4C61.0813 23.96 59.9853 24.24 58.7693 24.24C57.5533 24.24 56.4493 23.96 55.4573 23.4C54.4813 22.84 53.6973 22.064 53.1053 21.072C52.5293 20.064 52.2413 18.904 52.2413 17.592C52.2413 16.28 52.5293 15.128 53.1053 14.136C53.6973 13.128 54.4813 12.344 55.4573 11.784C56.4493 11.208 57.5533 10.92 58.7693 10.92C59.9853 10.92 61.0813 11.208 62.0573 11.784C63.0493 12.344 63.8333 13.128 64.4093 14.136C65.0013 15.128 65.2973 16.28 65.2973 17.592ZM62.4173 17.592C62.4173 16.776 62.2493 16.072 61.9133 15.48C61.5933 14.872 61.1533 14.4 60.5933 14.064C60.0493 13.728 59.4413 13.56 58.7693 13.56C58.0973 13.56 57.4813 13.728 56.9213 14.064C56.3773 14.4 55.9373 14.872 55.6013 15.48C55.2813 16.072 55.1213 16.776 55.1213 17.592C55.1213 18.392 55.2813 19.096 55.6013 19.704C55.9373 20.296 56.3773 20.76 56.9213 21.096C57.4813 21.432 58.0973 21.6 58.7693 21.6C59.4413 21.6 60.0493 21.432 60.5933 21.096C61.1533 20.76 61.5933 20.296 61.9133 19.704C62.2493 19.096 62.4173 18.392 62.4173 17.592ZM73.8658 24.24C72.5058 24.24 71.3218 23.96 70.3138 23.4C69.3218 22.824 68.5538 22.048 68.0098 21.072C67.4818 20.096 67.2178 18.992 67.2178 17.76C67.2178 16.32 67.5058 15.096 68.0818 14.088C68.6738 13.064 69.4418 12.28 70.3858 11.736C71.3298 11.192 72.3298 10.92 73.3858 10.92C74.2018 10.92 74.9698 11.088 75.6898 11.424C76.4258 11.76 77.0738 12.224 77.6338 12.816C78.1938 13.392 78.6338 14.064 78.9538 14.832C79.2898 15.6 79.4578 16.416 79.4578 17.28C79.4418 17.664 79.2898 17.976 79.0018 18.216C78.7138 18.456 78.3778 18.576 77.9938 18.576H68.8258L68.1058 16.176H76.9138L76.3858 16.656V16.008C76.3538 15.544 76.1858 15.128 75.8818 14.76C75.5938 14.392 75.2258 14.104 74.7778 13.896C74.3458 13.672 73.8818 13.56 73.3858 13.56C72.9058 13.56 72.4578 13.624 72.0418 13.752C71.6258 13.88 71.2658 14.096 70.9618 14.4C70.6578 14.704 70.4178 15.112 70.2418 15.624C70.0658 16.136 69.9778 16.784 69.9778 17.568C69.9778 18.432 70.1538 19.168 70.5058 19.776C70.8738 20.368 71.3378 20.824 71.8978 21.144C72.4738 21.448 73.0818 21.6 73.7218 21.6C74.3138 21.6 74.7858 21.552 75.1378 21.456C75.4898 21.36 75.7698 21.248 75.9778 21.12C76.2018 20.976 76.4018 20.856 76.5778 20.76C76.8658 20.616 77.1378 20.544 77.3938 20.544C77.7458 20.544 78.0338 20.664 78.2578 20.904C78.4978 21.144 78.6178 21.424 78.6178 21.744C78.6178 22.176 78.3938 22.568 77.9458 22.92C77.5298 23.272 76.9458 23.584 76.1938 23.856C75.4418 24.112 74.6658 24.24 73.8658 24.24ZM82.2381 11.16C82.7021 11.16 83.0941 11.36 83.4141 11.76L91.4301 21.72C91.6381 21.976 91.7421 22.264 91.7421 22.584C91.7421 22.984 91.5901 23.328 91.2861 23.616C90.9821 23.904 90.6461 24.048 90.2781 24.048C89.8141 24.048 89.4221 23.84 89.1021 23.424L81.0861 13.464C80.8781 13.208 80.7741 12.92 80.7741 12.6C80.7741 12.184 80.9181 11.84 81.2061 11.568C81.5101 11.296 81.8541 11.16 82.2381 11.16ZM82.2621 24.024C81.9421 24.024 81.6221 23.904 81.3021 23.664C80.9981 23.408 80.8461 23.104 80.8461 22.752C80.8461 22.432 80.9661 22.128 81.2061 21.84L84.8781 17.352L86.3181 19.752L83.4141 23.424C83.1101 23.824 82.7261 24.024 82.2621 24.024ZM90.2541 11.16C90.6381 11.16 90.9581 11.296 91.2141 11.568C91.4861 11.824 91.6221 12.12 91.6221 12.456C91.6221 12.616 91.5981 12.776 91.5501 12.936C91.5021 13.096 91.4141 13.248 91.2861 13.392L87.6621 17.808L86.1501 15.72L89.1021 11.808C89.4221 11.376 89.8061 11.16 90.2541 11.16ZM101.421 7.2C102.957 7.2 104.101 7.56 104.853 8.28C105.605 9 105.981 10.064 105.981 11.472C105.981 12.224 105.797 12.888 105.429 13.464C105.061 14.024 104.517 14.464 103.797 14.784C103.077 15.088 102.189 15.24 101.133 15.24L101.229 14.16C101.725 14.16 102.293 14.232 102.933 14.376C103.573 14.504 104.189 14.744 104.781 15.096C105.389 15.432 105.885 15.912 106.269 16.536C106.669 17.144 106.869 17.928 106.869 18.888C106.869 19.944 106.693 20.808 106.341 21.48C106.005 22.152 105.557 22.672 104.997 23.04C104.437 23.408 103.837 23.664 103.197 23.808C102.557 23.936 101.941 24 101.349 24H95.3734C94.9574 24 94.6054 23.864 94.3174 23.592C94.0454 23.304 93.9094 22.952 93.9094 22.536V8.664C93.9094 8.248 94.0454 7.904 94.3174 7.632C94.6054 7.344 94.9574 7.2 95.3734 7.2H101.421ZM100.989 10.032H96.7174L97.0294 9.648V13.992L96.7414 13.776H101.061C101.525 13.776 101.941 13.624 102.309 13.32C102.677 13.016 102.861 12.576 102.861 12C102.861 11.312 102.685 10.816 102.333 10.512C101.997 10.192 101.549 10.032 100.989 10.032ZM101.181 16.608H96.8134L97.0294 16.416V21.48L96.7894 21.24H101.349C102.085 21.24 102.669 21.048 103.101 20.664C103.533 20.264 103.749 19.672 103.749 18.888C103.749 18.168 103.605 17.648 103.317 17.328C103.029 17.008 102.685 16.808 102.285 16.728C101.885 16.648 101.517 16.608 101.181 16.608ZM118.924 11.16C119.34 11.16 119.684 11.304 119.956 11.592C120.228 11.864 120.364 12.208 120.364 12.624V18.72C120.364 20.416 119.892 21.76 118.948 22.752C118.004 23.744 116.644 24.24 114.868 24.24C113.092 24.24 111.732 23.744 110.788 22.752C109.86 21.76 109.396 20.416 109.396 18.72V12.624C109.396 12.208 109.532 11.864 109.804 11.592C110.076 11.304 110.42 11.16 110.836 11.16C111.252 11.16 111.596 11.304 111.868 11.592C112.14 11.864 112.276 12.208 112.276 12.624V18.72C112.276 19.696 112.492 20.424 112.924 20.904C113.356 21.368 114.004 21.6 114.868 21.6C115.748 21.6 116.404 21.368 116.836 20.904C117.268 20.424 117.484 19.696 117.484 18.72V12.624C117.484 12.208 117.62 11.864 117.892 11.592C118.164 11.304 118.508 11.16 118.924 11.16ZM122.738 22.008C122.578 21.784 122.506 21.496 122.522 21.144C122.538 20.792 122.746 20.488 123.146 20.232C123.402 20.072 123.674 20.008 123.962 20.04C124.25 20.056 124.53 20.2 124.802 20.472C125.266 20.936 125.754 21.296 126.266 21.552C126.778 21.808 127.418 21.936 128.186 21.936C128.426 21.92 128.69 21.888 128.978 21.84C129.266 21.776 129.514 21.648 129.722 21.456C129.946 21.248 130.058 20.936 130.058 20.52C130.058 20.168 129.938 19.888 129.698 19.68C129.458 19.472 129.138 19.296 128.738 19.152C128.354 19.008 127.922 18.872 127.442 18.744C126.946 18.6 126.434 18.44 125.906 18.264C125.394 18.088 124.922 17.864 124.49 17.592C124.058 17.304 123.706 16.928 123.434 16.464C123.162 16 123.026 15.416 123.026 14.712C123.026 13.912 123.25 13.232 123.698 12.672C124.146 12.112 124.722 11.68 125.426 11.376C126.146 11.072 126.898 10.92 127.682 10.92C128.178 10.92 128.698 10.984 129.242 11.112C129.786 11.224 130.306 11.416 130.802 11.688C131.298 11.944 131.714 12.288 132.05 12.72C132.226 12.96 132.33 13.248 132.362 13.584C132.394 13.92 132.242 14.224 131.906 14.496C131.666 14.688 131.386 14.776 131.066 14.76C130.746 14.728 130.482 14.616 130.274 14.424C130.002 14.072 129.634 13.792 129.17 13.584C128.722 13.376 128.202 13.272 127.61 13.272C127.37 13.272 127.106 13.304 126.818 13.368C126.546 13.416 126.306 13.536 126.098 13.728C125.89 13.904 125.786 14.192 125.786 14.592C125.786 14.96 125.906 15.256 126.146 15.48C126.386 15.688 126.706 15.864 127.106 16.008C127.522 16.136 127.962 16.264 128.426 16.392C128.906 16.52 129.394 16.672 129.89 16.848C130.386 17.024 130.842 17.256 131.258 17.544C131.674 17.832 132.01 18.208 132.266 18.672C132.522 19.12 132.65 19.696 132.65 20.4C132.65 21.216 132.41 21.912 131.93 22.488C131.45 23.064 130.85 23.504 130.13 23.808C129.41 24.096 128.674 24.24 127.922 24.24C126.978 24.24 126.034 24.08 125.09 23.76C124.146 23.424 123.362 22.84 122.738 22.008ZM135.204 11.4H140.892C141.276 11.4 141.596 11.528 141.852 11.784C142.108 12.04 142.236 12.36 142.236 12.744C142.236 13.112 142.108 13.424 141.852 13.68C141.596 13.92 141.276 14.04 140.892 14.04H135.204C134.82 14.04 134.5 13.912 134.244 13.656C133.988 13.4 133.86 13.08 133.86 12.696C133.86 12.328 133.988 12.024 134.244 11.784C134.5 11.528 134.82 11.4 135.204 11.4ZM137.772 8.4C138.188 8.4 138.524 8.544 138.78 8.832C139.052 9.104 139.188 9.448 139.188 9.864V20.544C139.188 20.768 139.228 20.952 139.308 21.096C139.404 21.24 139.524 21.344 139.668 21.408C139.828 21.472 139.996 21.504 140.172 21.504C140.364 21.504 140.54 21.472 140.7 21.408C140.86 21.328 141.044 21.288 141.252 21.288C141.476 21.288 141.676 21.392 141.852 21.6C142.044 21.808 142.14 22.096 142.14 22.464C142.14 22.912 141.892 23.28 141.396 23.568C140.916 23.856 140.396 24 139.836 24C139.5 24 139.124 23.976 138.708 23.928C138.308 23.864 137.924 23.728 137.556 23.52C137.204 23.296 136.908 22.96 136.668 22.512C136.428 22.064 136.308 21.448 136.308 20.664V9.864C136.308 9.448 136.444 9.104 136.716 8.832C137.004 8.544 137.356 8.4 137.772 8.4ZM150.811 24.24C149.451 24.24 148.267 23.96 147.259 23.4C146.267 22.824 145.499 22.048 144.955 21.072C144.427 20.096 144.163 18.992 144.163 17.76C144.163 16.32 144.451 15.096 145.027 14.088C145.619 13.064 146.387 12.28 147.331 11.736C148.275 11.192 149.275 10.92 150.331 10.92C151.147 10.92 151.915 11.088 152.635 11.424C153.371 11.76 154.019 12.224 154.579 12.816C155.139 13.392 155.579 14.064 155.899 14.832C156.235 15.6 156.403 16.416 156.403 17.28C156.387 17.664 156.235 17.976 155.947 18.216C155.659 18.456 155.323 18.576 154.939 18.576H145.771L145.051 16.176H153.859L153.331 16.656V16.008C153.299 15.544 153.131 15.128 152.827 14.76C152.539 14.392 152.171 14.104 151.723 13.896C151.291 13.672 150.827 13.56 150.331 13.56C149.851 13.56 149.403 13.624 148.987 13.752C148.571 13.88 148.211 14.096 147.907 14.4C147.603 14.704 147.363 15.112 147.187 15.624C147.011 16.136 146.923 16.784 146.923 17.568C146.923 18.432 147.099 19.168 147.451 19.776C147.819 20.368 148.283 20.824 148.843 21.144C149.419 21.448 150.027 21.6 150.667 21.6C151.259 21.6 151.731 21.552 152.083 21.456C152.435 21.36 152.715 21.248 152.923 21.12C153.147 20.976 153.347 20.856 153.523 20.76C153.811 20.616 154.083 20.544 154.339 20.544C154.691 20.544 154.979 20.664 155.203 20.904C155.443 21.144 155.563 21.424 155.563 21.744C155.563 22.176 155.339 22.568 154.891 22.92C154.475 23.272 153.891 23.584 153.139 23.856C152.387 24.112 151.611 24.24 150.811 24.24ZM160.359 24C159.943 24 159.599 23.864 159.327 23.592C159.055 23.304 158.919 22.952 158.919 22.536V12.624C158.919 12.208 159.055 11.864 159.327 11.592C159.599 11.304 159.943 11.16 160.359 11.16C160.775 11.16 161.119 11.304 161.391 11.592C161.663 11.864 161.799 12.208 161.799 12.624V14.88L161.631 13.272C161.807 12.888 162.031 12.552 162.303 12.264C162.591 11.96 162.911 11.712 163.263 11.52C163.615 11.312 163.991 11.16 164.391 11.064C164.791 10.968 165.191 10.92 165.591 10.92C166.071 10.92 166.471 11.056 166.791 11.328C167.127 11.6 167.295 11.92 167.295 12.288C167.295 12.816 167.159 13.2 166.887 13.44C166.615 13.664 166.319 13.776 165.999 13.776C165.695 13.776 165.415 13.72 165.159 13.608C164.919 13.496 164.639 13.44 164.319 13.44C164.031 13.44 163.735 13.512 163.431 13.656C163.143 13.784 162.871 13.992 162.615 14.28C162.375 14.568 162.175 14.928 162.015 15.36C161.871 15.776 161.799 16.272 161.799 16.848V22.536C161.799 22.952 161.663 23.304 161.391 23.592C161.119 23.864 160.775 24 160.359 24Z" fill="white"/>
<path d="M2.34366 14.5C2.26554 14.5 2.10929 14.5 2.03116 14.4219C1.87491 14.3438 1.71866 14.1875 1.64054 13.9531L0.546788 10.9844C0.312413 10.4375 0.390538 9.81251 0.624913 9.26563C0.859288 8.71876 1.32804 8.25 1.95304 8.01563L18.1249 2.15625C18.7499 1.92188 19.3749 2 19.9218 2.23438C20.4687 2.46875 20.8593 2.9375 21.0937 3.5625L22.1874 6.53125C22.2655 6.6875 22.2655 6.92188 22.1874 7.15625C22.0312 7.3125 21.8749 7.39063 21.7187 7.46875L2.57804 14.4219C2.49991 14.5 2.42179 14.5 2.34366 14.5Z" fill="#7B2ABF"/>
<path d="M23.4375 17.625V14.5C23.4375 14.0312 23.125 13.7188 22.6562 13.7188H2.34375C1.875 13.7188 1.5625 14.0312 1.5625 14.5V17.625H23.4375Z" fill="#7B2ABF"/>
<path d="M1.5625 19.1875V24.6562C1.5625 25.9844 2.57812 27 3.90625 27H21.0938C22.4219 27 23.4375 25.9844 23.4375 24.6562V19.1875H1.5625Z" fill="#7B2ABF"/>
</svg>
